<?xml version="1.0" encoding="utf-8"?>
<!-- Generator: Adobe Illustrator 14.0.0, SVG Export Plug-In . SVG Version: 6.00 Build 43363)  -->
<!DOCTYPE svg PUBLIC "-//W3C//DTD SVG 1.1//EN" "http://www.w3.org/Graphics/SVG/1.1/DTD/svg11.dtd">
<svg version="1.1" xmlns="http://www.w3.org/2000/svg" xmlns:xlink="http://www.w3.org/1999/xlink" x="0px" y="0px" width="256px"
	 height="256px" viewBox="0 0 256 256" enable-background="new 0 0 256 256" xml:space="preserve">
<g id="active">
</g>
<g id="Layer_11">
	<g>
		<defs>
			<path id="SVGID_1_" d="M256,206c0,27.614-22.386,50-50,50H50c-27.614,0-37,0-50,0V50C0,22.386,22.386,0,50,0h156
				c27.614,0,37,0,50,0V206z"/>
		</defs>
		<clipPath id="SVGID_2_">
			<use xlink:href="#SVGID_1_"  overflow="visible"/>
		</clipPath>
		<rect clip-path="url(#SVGID_2_)" fill="#005EAB" width="256" height="256"/>
		<path clip-path="url(#SVGID_2_)" fill="#F2F2F2" d="M27.461,71.799V43.091c0-1.302,1.055-2.356,2.356-2.356h94.255
			c1.301,0,2.356,1.055,2.356,2.356v28.708H27.461z"/>
		<path clip-path="url(#SVGID_2_)" fill="#CCCCCC" d="M61.236,71.799h65.193V43.091c0-1.302-1.055-2.356-2.356-2.356H61.236V71.799z
			"/>
		<polygon clip-path="url(#SVGID_2_)" fill="#B3B3B3" points="95.511,70.189 94.511,70.189 94.511,40.734 95.511,40.734 
			95.511,70.189 		"/>
		<polygon clip-path="url(#SVGID_2_)" fill="#B3B3B3" points="62.521,70.189 61.521,70.189 61.521,40.734 62.521,40.734 
			62.521,70.189 		"/>
		<path clip-path="url(#SVGID_2_)" fill="#F2F2F2" d="M27.461,72.485c0-1.301,1.055-2.356,2.356-2.356h196.364
			c1.302,0,2.356,1.055,2.356,2.356v114.424c0,1.302-1.055,2.356-2.356,2.356H29.817c-1.301,0-2.356-1.055-2.356-2.356V72.485z"/>
		<rect x="37" y="134" clip-path="url(#SVGID_2_)" fill="#CCCCCC" width="179" height="8"/>
		<rect x="37" y="170" clip-path="url(#SVGID_2_)" fill="#CCCCCC" width="175" height="8"/>
		<rect x="37" y="152" clip-path="url(#SVGID_2_)" fill="#CCCCCC" width="163" height="8"/>
		<path clip-path="url(#SVGID_2_)" fill="#808080" d="M51.397,58.563v-2.674h-2.013c-0.121-0.499-0.31-0.969-0.561-1.403
			l1.409-1.409l-1.891-1.891l-1.391,1.391c-0.438-0.265-0.915-0.468-1.423-0.598v-1.958h-2.673v1.958
			c-0.507,0.13-0.985,0.333-1.421,0.598l-1.392-1.391l-1.891,1.891l1.409,1.409c-0.251,0.434-0.44,0.905-0.561,1.403h-2.012v2.674
			h2.05c0.132,0.479,0.328,0.932,0.58,1.347l-1.466,1.466l1.891,1.892l1.484-1.484c0.412,0.238,0.857,0.42,1.329,0.542v2.106h2.673
			v-2.106c0.472-0.122,0.917-0.304,1.329-0.542l1.484,1.484l1.891-1.891l-1.466-1.466c0.252-0.416,0.449-0.868,0.579-1.347H51.397z
			 M44.192,60.198c-1.642,0-2.971-1.33-2.971-2.971c0-1.641,1.33-2.971,2.971-2.971s2.972,1.33,2.972,2.971
			C47.164,58.868,45.833,60.198,44.192,60.198z"/>
		<g clip-path="url(#SVGID_2_)">
			<polygon fill="#B3B3B3" points="86.5,57.457 74.99,57.457 74.99,55.63 86.5,55.63 86.5,57.457 			"/>
			<polygon fill="#B3B3B3" points="86.5,62.556 74.99,62.556 74.99,60.729 86.5,60.729 86.5,62.556 			"/>
			<polygon fill="#B3B3B3" points="86.5,52.358 74.99,52.358 74.99,50.532 86.5,50.532 86.5,52.358 			"/>
			<g>
				<circle fill="#B3B3B3" cx="71.188" cy="56.543" r="0.722"/>
				<path fill="#B3B3B3" d="M71.188,55.821c0.399,0,0.722,0.322,0.722,0.722c0,0.399-0.323,0.722-0.722,0.722
					c-0.399,0-0.723-0.323-0.723-0.722C70.465,56.144,70.789,55.821,71.188,55.821 M71.188,55.212c-0.735,0-1.331,0.597-1.331,1.331
					s0.596,1.332,1.331,1.332c0.734,0,1.331-0.598,1.331-1.332S71.922,55.212,71.188,55.212L71.188,55.212z"/>
			</g>
			<g>
				<circle fill="#B3B3B3" cx="71.188" cy="61.643" r="0.722"/>
				<path fill="#B3B3B3" d="M71.188,60.92c0.399,0,0.722,0.323,0.722,0.723c0,0.397-0.323,0.722-0.722,0.722
					c-0.399,0-0.723-0.324-0.723-0.722C70.465,61.243,70.789,60.92,71.188,60.92 M71.188,60.311c-0.735,0-1.331,0.597-1.331,1.332
					c0,0.733,0.596,1.33,1.331,1.33c0.734,0,1.331-0.597,1.331-1.33C72.519,60.908,71.922,60.311,71.188,60.311L71.188,60.311z"/>
			</g>
			<g>
				<circle fill="#B3B3B3" cx="71.188" cy="51.445" r="0.722"/>
				<path fill="#B3B3B3" d="M71.188,50.723c0.399,0,0.722,0.323,0.722,0.722c0,0.399-0.323,0.723-0.722,0.723
					c-0.399,0-0.723-0.323-0.723-0.723C70.465,51.046,70.789,50.723,71.188,50.723 M71.188,50.115c-0.735,0-1.331,0.596-1.331,1.33
					c0,0.734,0.596,1.332,1.331,1.332c0.734,0,1.331-0.597,1.331-1.332C72.519,50.711,71.922,50.115,71.188,50.115L71.188,50.115z"
					/>
			</g>
		</g>
		<g clip-path="url(#SVGID_2_)">
			<g>
				<path fill="#B3B3B3" d="M112.673,59.289l0.385,0.384c-0.589,1.054-1.814,0.988-1.814,0.988c-2.066,0-1.914-1.382-1.914-1.382
					l0.243-2.948c0.062-0.806-0.729-0.79-0.729-0.79v-0.488h2.674l-0.243,4.194c0,0,0.02,0.527,0.628,0.507
					C112.51,59.734,112.673,59.289,112.673,59.289z"/>
				<circle fill="#B3B3B3" cx="110.464" cy="52.927" r="1.134"/>
			</g>
			<path fill="#B3B3B3" d="M110.951,50.321c3.255,0,5.906,2.649,5.906,5.905c0,3.257-2.65,5.906-5.906,5.906
				c-3.256,0-5.906-2.649-5.906-5.906C105.044,52.971,107.694,50.321,110.951,50.321 M110.951,48.686
				c-4.165,0-7.542,3.375-7.542,7.541c0,4.166,3.377,7.541,7.542,7.541c4.165,0,7.541-3.375,7.541-7.541
				C118.491,52.062,115.115,48.686,110.951,48.686L110.951,48.686z"/>
		</g>
		<rect y="216.195" clip-path="url(#SVGID_2_)" fill="#3C3C3C" width="256" height="39.805"/>
		<g clip-path="url(#SVGID_2_)">
			<path fill="#9B5C8F" d="M49.587,85.473h45.867c2.903,0,5.252,2.35,5.252,5.252v17.507c0,2.903-2.35,5.253-5.252,5.253H79.006
				l2.258,5.529l-9.929-5.529H49.61c-2.902,0-5.252-2.351-5.252-5.253V90.725C44.335,87.845,46.685,85.473,49.587,85.473z"/>
			<path fill="#FFFFFF" d="M47.169,90.241c0.322-0.438,0.806-0.668,1.452-0.714c1.174-0.092,1.842,0.461,2.003,1.659
				c0.714,4.814,1.498,8.892,2.327,12.233l5.045-9.606c0.46-0.875,1.037-1.336,1.728-1.383c1.013-0.068,1.636,0.577,1.889,1.936
				c0.576,3.064,1.313,5.667,2.189,7.879c0.599-5.852,1.612-10.067,3.041-12.67c0.346-0.645,0.853-0.967,1.521-1.013
				c0.53-0.047,1.014,0.114,1.451,0.46c0.438,0.346,0.668,0.784,0.714,1.313c0.023,0.415-0.045,0.76-0.23,1.105
				c-0.898,1.659-1.636,4.446-2.234,8.317c-0.576,3.755-0.784,6.681-0.646,8.776c0.046,0.577-0.045,1.083-0.276,1.521
				c-0.277,0.507-0.691,0.784-1.222,0.83c-0.598,0.045-1.221-0.23-1.819-0.852c-2.143-2.19-3.848-5.461-5.092-9.814
				c-1.497,2.948-2.603,5.16-3.317,6.633c-1.359,2.604-2.511,3.939-3.479,4.009c-0.622,0.046-1.152-0.483-1.612-1.589
				c-1.175-3.018-2.442-8.847-3.801-17.485C46.731,91.186,46.846,90.656,47.169,90.241z"/>
			<path fill="#FFFFFF" d="M96.698,93.858c-0.829-1.451-2.05-2.327-3.686-2.672c-0.438-0.092-0.852-0.138-1.244-0.138
				c-2.211,0-4.008,1.152-5.413,3.456c-1.198,1.958-1.797,4.124-1.797,6.497c0,1.774,0.369,3.294,1.106,4.562
				c0.829,1.451,2.05,2.326,3.686,2.671c0.438,0.093,0.853,0.139,1.244,0.139c2.235,0,4.032-1.152,5.414-3.456
				c1.198-1.98,1.796-4.146,1.796-6.519C97.804,96.6,97.435,95.102,96.698,93.858L96.698,93.858z M93.795,100.239
				c-0.322,1.521-0.897,2.649-1.75,3.41c-0.668,0.598-1.291,0.853-1.866,0.737c-0.553-0.115-1.015-0.599-1.36-1.497
				c-0.276-0.715-0.414-1.428-0.414-2.097c0-0.575,0.046-1.152,0.161-1.682c0.207-0.944,0.598-1.866,1.221-2.742
				c0.76-1.128,1.567-1.589,2.396-1.428c0.553,0.115,1.014,0.599,1.359,1.497c0.276,0.715,0.414,1.429,0.414,2.097
				C93.957,99.134,93.888,99.709,93.795,100.239L93.795,100.239z"/>
			<path fill="#FFFFFF" d="M82.254,93.858c-0.829-1.451-2.073-2.327-3.686-2.672c-0.438-0.092-0.852-0.138-1.244-0.138
				c-2.212,0-4.008,1.152-5.414,3.456c-1.198,1.958-1.796,4.124-1.796,6.497c0,1.774,0.369,3.294,1.105,4.562
				c0.829,1.451,2.05,2.326,3.687,2.671c0.437,0.093,0.852,0.139,1.243,0.139c2.234,0,4.032-1.152,5.414-3.456
				c1.198-1.98,1.797-4.146,1.797-6.519C83.36,96.6,82.991,95.102,82.254,93.858L82.254,93.858z M79.352,100.239
				c-0.323,1.521-0.899,2.649-1.751,3.41c-0.668,0.598-1.291,0.853-1.866,0.737c-0.553-0.115-1.014-0.599-1.359-1.497
				c-0.276-0.715-0.414-1.428-0.414-2.097c0-0.575,0.046-1.152,0.161-1.682c0.208-0.944,0.599-1.866,1.221-2.742
				c0.76-1.128,1.567-1.589,2.396-1.428c0.553,0.115,1.014,0.599,1.359,1.497c0.276,0.715,0.415,1.429,0.415,2.097
				C79.513,99.134,79.466,99.709,79.352,100.239L79.352,100.239z"/>
			<g>
				<g>
					<path d="M106.535,93.651c-1.543,1.521-2.304,3.456-2.304,5.805c0,2.512,0.76,4.562,2.28,6.105s3.501,2.326,5.966,2.326
						c0.714,0,1.521-0.114,2.396-0.368v-3.731c-0.806,0.23-1.497,0.345-2.096,0.345c-1.221,0-2.188-0.415-2.926-1.221
						c-0.737-0.829-1.105-1.935-1.105-3.34c0-1.313,0.368-2.396,1.083-3.226c0.737-0.853,1.636-1.267,2.742-1.267
						c0.714,0,1.474,0.115,2.303,0.346v-3.732c-0.76-0.207-1.612-0.299-2.511-0.299C110.013,91.37,108.078,92.13,106.535,93.651z
						 M122.522,91.37c-2.119,0-3.778,0.714-4.976,2.119c-1.198,1.405-1.774,3.387-1.774,5.921c0,2.741,0.599,4.837,1.774,6.29
						c1.175,1.45,2.902,2.187,5.16,2.187c2.189,0,3.871-0.737,5.044-2.187c1.176-1.453,1.774-3.502,1.774-6.128
						c0-2.626-0.599-4.653-1.797-6.082C126.508,92.084,124.78,91.37,122.522,91.37z M124.342,103.349
						c-0.414,0.646-1.037,0.968-1.82,0.968c-0.737,0-1.291-0.323-1.682-0.968c-0.392-0.645-0.576-1.935-0.576-3.894
						c0-3.018,0.76-4.515,2.303-4.515c1.613,0,2.442,1.521,2.442,4.584C124.987,101.414,124.757,102.704,124.342,103.349z
						 M140.906,91.808l-0.829,3.524c-0.208,0.898-0.416,1.821-0.6,2.765l-0.461,2.442c-0.437-2.442-1.036-5.345-1.797-8.731h-5.345
						l-2.005,15.688h4.01l1.082-10.804l2.742,10.804h2.856l2.627-10.781l1.127,10.781h4.193l-2.119-15.688H140.906L140.906,91.808z
						 M160.097,91.808l-0.83,3.524c-0.207,0.898-0.414,1.821-0.6,2.765l-0.46,2.442c-0.438-2.442-1.037-5.345-1.797-8.731h-5.345
						l-2.003,15.688h4.007l1.083-10.804l2.74,10.804h2.858l2.604-10.781l1.127,10.781h4.194l-2.12-15.688H160.097z M173.135,101.299
						h3.755v-3.249h-3.755v-2.879h4.33v-3.34h-8.568v15.688h8.593v-3.339h-4.354V101.299z M189.421,98.811
						c0.438-0.714,0.669-1.452,0.669-2.211c0-1.474-0.575-2.65-1.728-3.502c-1.151-0.853-2.742-1.29-4.723-1.29h-4.931v15.688h4.239
						v-7.141h0.069l3.433,7.141h4.469l-3.386-7.072C188.338,100.055,188.984,99.525,189.421,98.811z M182.926,98.558v-3.732
						c1.014,0.023,1.728,0.184,2.166,0.506c0.437,0.323,0.644,0.83,0.644,1.567C185.735,97.981,184.792,98.535,182.926,98.558z
						 M192.578,93.651c-1.544,1.521-2.305,3.456-2.305,5.805c0,2.512,0.761,4.562,2.282,6.105c1.52,1.543,3.501,2.326,5.966,2.326
						c0.715,0,1.521-0.114,2.395-0.368v-3.731c-0.805,0.23-1.496,0.345-2.096,0.345c-1.22,0-2.188-0.415-2.925-1.221
						c-0.737-0.829-1.105-1.935-1.105-3.34c0-1.313,0.368-2.396,1.081-3.226c0.737-0.853,1.637-1.267,2.743-1.267
						c0.713,0,1.474,0.115,2.302,0.346v-3.732c-0.758-0.207-1.61-0.299-2.509-0.299C196.079,91.37,194.121,92.13,192.578,93.651z
						 M206.331,104.132v-2.856h3.755v-3.248h-3.755v-2.88h4.354v-3.34h-8.57v15.688h8.594v-3.34h-4.378V104.132z"/>
				</g>
			</g>
		</g>
		<g clip-path="url(#SVGID_2_)">
			<path fill="#FFFFFF" d="M56.078,227.495c0,1.158-0.208,7.269-4.429,11.527c-4.222-4.259-4.43-10.369-4.43-11.527
				c-1.53,0.322-3.001,0.742-4.4,1.248c2.085,8.556,8.34,12.212,8.831,12.487c0.489-0.275,6.744-3.932,8.829-12.487
				C59.079,228.237,57.606,227.817,56.078,227.495"/>
			<path fill="#FFFFFF" d="M61.565,229.16c-0.45,1.305-3.446,9.312-9.917,12.073c-6.472-2.762-9.468-10.769-9.917-12.073
				c-1.716,0.696-3.312,1.526-4.762,2.473c3.238,6.877,13.999,11.697,14.679,11.996c0.679-0.299,11.439-5.119,14.678-11.996
				C64.877,230.687,63.28,229.856,61.565,229.16"/>
			<path fill="#FFFFFF" d="M67.279,232.284c-1.346,1.869-6.657,8.491-15.63,10.563c-8.975-2.072-14.286-8.694-15.632-10.563
				c-2.156,1.554-3.937,3.373-5.241,5.389c7.521,5.798,20.145,5.967,20.873,5.972c0.727-0.005,13.351-0.174,20.872-5.972
				C71.216,235.657,69.435,233.838,67.279,232.284"/>
			<path fill="#FFFFFF" d="M73.189,238.797c-6.721,4.322-20.782,4.823-21.541,4.847c-0.759-0.023-14.821-0.524-21.542-4.847
				c-0.292,0.538-0.55,1.089-0.772,1.649c1.074,0.449,9.227,3.655,22.314,3.198c13.086,0.457,21.238-2.749,22.312-3.198
				C73.738,239.886,73.479,239.335,73.189,238.797"/>
			<path fill="#FFFFFF" d="M83.181,241.2l1.832-2.605c1.102,1.151,2.815,2.136,4.975,2.136c1.854,0,2.723-0.821,2.723-1.735
				c0-2.723-9.012-0.821-9.012-6.713c0-2.604,2.253-4.765,5.938-4.765c2.487,0,4.553,0.751,6.102,2.183l-1.854,2.488
				c-1.267-1.173-2.957-1.714-4.553-1.714c-1.407,0-2.207,0.611-2.207,1.549c0,2.465,8.989,0.798,8.989,6.643
				c0,2.864-2.065,5.023-6.266,5.023C86.819,243.689,84.66,242.679,83.181,241.2"/>
			<polygon fill="#FFFFFF" points="109.043,243.406 104.302,237.117 103.082,238.595 103.082,243.406 99.75,243.406 99.75,227.753 
				103.082,227.753 103.082,234.724 108.62,227.753 112.727,227.753 106.509,235.1 113.149,243.406 			"/>
			<polygon fill="#FFFFFF" points="120.191,243.406 120.191,237 114.184,227.753 117.985,227.753 121.857,234.02 125.729,227.753 
				129.509,227.753 123.524,237 123.524,243.406 			"/>
			<polygon fill="#FFFFFF" points="136.759,243.406 130.726,227.753 134.506,227.753 138.848,239.77 143.188,227.753 
				146.967,227.753 140.935,243.406 			"/>
			<polygon fill="#FFFFFF" points="149.594,243.406 149.594,227.753 160.671,227.753 160.671,230.687 152.926,230.687 
				152.926,233.972 160.507,233.972 160.507,236.906 152.926,236.906 152.926,240.476 160.671,240.476 160.671,243.406 			"/>
			<path fill="#FFFFFF" d="M173.295,243.406l-3.073-5.562h-2.441v5.562h-3.333v-15.653h7.323c3.262,0,5.279,2.137,5.279,5.046
				c0,2.745-1.76,4.249-3.449,4.646l3.544,5.962H173.295z M173.623,232.775c0-1.292-1.008-2.088-2.322-2.088h-3.521v4.224h3.521
				C172.615,234.911,173.623,234.114,173.623,232.775"/>
			<path fill="#FFFFFF" d="M179.961,235.591c0-4.951,3.756-8.097,8.355-8.097c3.238,0,5.28,1.644,6.453,3.497l-2.746,1.501
				c-0.727-1.101-2.066-2.041-3.707-2.041c-2.863,0-4.93,2.183-4.93,5.14c0,2.958,2.066,5.14,4.93,5.14
				c1.384,0,2.676-0.609,3.309-1.196v-1.879h-4.131v-2.908h7.463v6.008c-1.595,1.783-3.824,2.934-6.641,2.934
				C183.717,243.688,179.961,240.521,179.961,235.591"/>
			<polygon fill="#FFFFFF" points="198.78,243.406 198.78,227.753 209.858,227.753 209.858,230.687 202.113,230.687 
				202.113,233.972 209.694,233.972 209.694,236.906 202.113,236.906 202.113,240.476 209.858,240.476 209.858,243.406 			"/>
		</g>
	</g>
</g>
</svg>
